<svg xmlns="http://www.w3.org/2000/svg" width="55.986" height="54.835" viewBox="0 0 55.986 54.835">
  <g id="sunlight" transform="translate(0 0)">
    <g id="Group_14" data-name="Group 14" transform="translate(0 0)">
      <path id="Path_22" data-name="Path 22" d="M71.267,56.537A12.545,12.545,0,1,0,83.813,69.081,12.559,12.559,0,0,0,71.267,56.537Zm0,23.386A10.847,10.847,0,1,1,82.12,69.08,10.862,10.862,0,0,1,71.267,79.923Z" transform="translate(-43.268 -42.234)" fill="#fff"/>
      <path id="Path_23" data-name="Path 23" d="M8.994,101.831a.845.845,0,0,0-.843-.848H.839a.846.846,0,0,0,0,1.692H8.152A.845.845,0,0,0,8.994,101.831Z" transform="translate(0 -74.984)" fill="#fff"/>
      <path id="Path_24" data-name="Path 24" d="M39.824,32.723a.882.882,0,0,0,1.194,0,.851.851,0,0,0,0-1.2l-4.679-4.675a.842.842,0,1,0-1.192,1.19Z" transform="translate(-25.716 -20.176)" fill="#fff"/>
      <path id="Path_25" data-name="Path 25" d="M42.12,157.571a.84.84,0,0,0-.6.252L36.841,162.5a.853.853,0,0,0,0,1.2.744.744,0,0,0,1.2-.008l4.675-4.677a.852.852,0,0,0,0-1.2A.832.832,0,0,0,42.12,157.571Z" transform="translate(-26.963 -116.679)" fill="#fff"/>
      <path id="Path_26" data-name="Path 26" d="M186.716,100.979h-7.31a.846.846,0,0,0,0,1.692h7.31a.846.846,0,0,0,0-1.692Z" transform="translate(-131.571 -74.981)" fill="#fff"/>
      <path id="Path_27" data-name="Path 27" d="M155.1,32.72l4.673-4.677a.843.843,0,1,0-1.193-1.19L153.9,31.533a.846.846,0,0,0,0,1.2A.883.883,0,0,0,155.1,32.72Z" transform="translate(-113.219 -20.178)" fill="#fff"/>
      <path id="Path_28" data-name="Path 28" d="M153.375,157.821a.844.844,0,1,0-1.194,1.193l4.675,4.686a.765.765,0,0,0,1.207-.01.851.851,0,0,0-.009-1.193Z" transform="translate(-111.948 -116.677)" fill="#fff"/>
      <path id="Path_29" data-name="Path 29" d="M102.1,178.955a.847.847,0,0,0-.831.844v6.628a.82.82,0,0,0,.243.586.843.843,0,0,0,1.45-.593l0-6.62A.857.857,0,0,0,102.1,178.955Z" transform="translate(-74.622 -132.436)" fill="#fff"/>
      <path id="Path_30" data-name="Path 30" d="M102.118,10.5a.86.86,0,0,0,.846-.852l0-6.613a.845.845,0,1,0-1.691,0v6.62a.811.811,0,0,0,.243.587A.864.864,0,0,0,102.118,10.5Z" transform="translate(-74.62 -2.188)" fill="#fff"/>
    </g>
  </g>
</svg>
