<svg xmlns="http://www.w3.org/2000/svg" width="77.33" height="37.501" viewBox="0 0 77.33 37.501">
  <g id="plane" transform="translate(0 0)">
    <path id="Path_21" data-name="Path 21" d="M74.629,65.863c-5.318-3.1-11.361-1.453-15.492.474L46.82,72.081,25.636,61.426l-12.616.542L30.513,79.7,19.365,85l-11.6-4.414L0,84.2,7.018,92.92a3.206,3.206,0,0,0-.8,3.438c.8,1.708,3.151,2.569,7.014,2.569q1.188,0,2.566-.109a37.427,37.427,0,0,0,11.711-2.758L71.535,75.53c3.8-1.773,5.7-3.636,5.791-5.693C77.375,68.77,76.947,67.214,74.629,65.863Zm-4.44,6.781L26.16,93.176a33.958,33.958,0,0,1-10.243,2.438c-3.857.346-5.919-.089-6.606-.458a6.087,6.087,0,0,1,.893-.927l1.144-1.007L5.028,85.373l2.863-1.335L19.5,88.457l16.423-7.8-15.6-15.815,4.62-.2L46.767,75.618l13.715-6.4c5.009-2.336,9.229-2.54,12.544-.609h0c.835.487,1.127.911,1.12,1.078C74.145,69.7,74.05,70.845,70.189,72.644Z" transform="translate(0 -61.426)" fill="#fff"/>
  </g>
</svg>
