<svg id="pin" xmlns="http://www.w3.org/2000/svg" width="29.868" height="47.621" viewBox="0 0 29.868 47.621">
  <g id="Group_12" data-name="Group 12" transform="translate(0)">
    <path id="Path_19" data-name="Path 19" d="M106.119,47.621l-.831-1.362c-.576-.944-14.1-23.206-14.1-31.182a14.935,14.935,0,1,1,29.868,0c0,7.976-13.529,30.238-14.1,31.182Zm0-45.674a13.073,13.073,0,0,0-12.985,13.13c0,2.114,1.192,6.919,6.869,17.81,2.427,4.657,4.876,8.875,6.116,10.969,1.241-2.1,3.694-6.319,6.123-10.978,5.675-10.885,6.866-15.689,6.866-17.8A13.075,13.075,0,0,0,106.119,1.947Z" transform="translate(-91.187 0)" fill="#fff"/>
  </g>
  <g id="Group_13" data-name="Group 13" transform="translate(7.062 7.274)">
    <path id="Path_20" data-name="Path 20" d="M171.61,90.465a7.872,7.872,0,1,1,7.872-7.872A7.88,7.88,0,0,1,171.61,90.465Zm0-13.8a5.925,5.925,0,1,0,5.925,5.925A5.931,5.931,0,0,0,171.61,76.669Z" transform="translate(-163.738 -74.722)" fill="#fff"/>
  </g>
</svg>
