<svg xmlns="http://www.w3.org/2000/svg" width="58.673" height="58.675" viewBox="0 0 58.673 58.675">
  <g id="money" transform="translate(-0.007)">
    <g id="Group_77" data-name="Group 77" transform="translate(7.799 51.799)">
      <g id="Group_76" data-name="Group 76">
        <path id="Path_58" data-name="Path 58" d="M69.959,452.337a1.145,1.145,0,1,0,.336.81A1.154,1.154,0,0,0,69.959,452.337Z" transform="translate(-68.003 -452.001)" fill="#0098b7"/>
      </g>
    </g>
    <g id="Group_79" data-name="Group 79" transform="translate(51.857 20.629)">
      <g id="Group_78" data-name="Group 78">
        <path id="Path_59" data-name="Path 59" d="M454.41,180.344a1.143,1.143,0,1,0,.337.81A1.152,1.152,0,0,0,454.41,180.344Z" transform="translate(-452.454 -180.008)" fill="#0098b7"/>
      </g>
    </g>
    <g id="Group_81" data-name="Group 81" transform="translate(0.007)">
      <g id="Group_80" data-name="Group 80" transform="translate(0)">
        <path id="Path_60" data-name="Path 60" d="M58.345.336A1.147,1.147,0,0,0,57.534,0H29.343A1.146,1.146,0,0,0,28.2,1.147V4.425L17.335,7.335a1.146,1.146,0,0,0-.81,1.4l5.63,21.011-4.87,4.87a3.437,3.437,0,0,0-2.838-1.5h-11A3.442,3.442,0,0,0,.007,36.558V55.237a3.442,3.442,0,0,0,3.438,3.438h11a3.444,3.444,0,0,0,3.337-2.611l1.363,1.188a5.774,5.774,0,0,0,3.8,1.422H57.534a1.146,1.146,0,0,0,1.146-1.146V1.146A1.147,1.147,0,0,0,58.345.336Zm-42.753,54.9a1.147,1.147,0,0,1-1.146,1.146h-11A1.147,1.147,0,0,1,2.3,55.237V36.558a1.147,1.147,0,0,1,1.146-1.146H7.8L7.774,56.383a1.146,1.146,0,1,0,2.292,0l.026-20.971h4.355a1.147,1.147,0,0,1,1.146,1.146V55.237ZM19.035,9.253,28.2,6.8v4.246l-.768.206a1.146,1.146,0,0,0-.81,1.4,3.089,3.089,0,0,1-2.182,3.779,1.146,1.146,0,0,0-.81,1.406l4.467,16.541h-2.3l-1.185-4.637a1.144,1.144,0,0,0-.192-.4ZM28.2,16.3v9.67l-2.09-7.739A5.369,5.369,0,0,0,28.2,16.3ZM44.661,56.383H22.94a3.482,3.482,0,0,1-2.289-.858l-2.767-2.414V37.262l5-5,.907,3.55a1.146,1.146,0,0,0,1.11.862H47.435a1.6,1.6,0,1,1,0,3.209H35.891a1.146,1.146,0,0,0,0,2.292H51.022a1.6,1.6,0,1,1,0,3.209H35.891a1.146,1.146,0,1,0,0,2.292H48.57a1.6,1.6,0,1,1,0,3.209H35.891a1.146,1.146,0,0,0,0,2.292h8.771a1.6,1.6,0,1,1,0,3.208Zm11.727,0H48.21a3.882,3.882,0,0,0,0-3.209h.36a3.894,3.894,0,0,0,3.483-5.64,3.893,3.893,0,0,0,2.1-6.078V15.9a1.146,1.146,0,0,0-2.292,0V39.972a3.9,3.9,0,0,0-.835-.091h-.038a3.894,3.894,0,0,0-3.549-5.5H45.593a5.484,5.484,0,1,0-4.309,0H35.02V12.59a5.4,5.4,0,0,0,4.109-4.109h8.62a5.4,5.4,0,0,0,4.109,4.109v3.563a1.146,1.146,0,1,0,2.292,0V11.567A1.146,1.146,0,0,0,53,10.421a3.089,3.089,0,0,1-3.085-3.086,1.146,1.146,0,0,0-1.146-1.146H38.105a1.146,1.146,0,0,0-1.146,1.146,3.089,3.089,0,0,1-3.085,3.086,1.146,1.146,0,0,0-1.146,1.146V34.38H30.49V2.293h25.9ZM43.439,32.53a3.192,3.192,0,1,1,3.192-3.192A3.2,3.2,0,0,1,43.439,32.53Z" transform="translate(-0.007 0)" fill="#0098b7"/>
      </g>
    </g>
  </g>
</svg>
