<svg id="emoji" xmlns="http://www.w3.org/2000/svg" width="47.081" height="47.081" viewBox="0 0 47.081 47.081">
  <path id="Path_31" data-name="Path 31" d="M23.54,0a23.54,23.54,0,1,0,23.54,23.54A23.567,23.567,0,0,0,23.54,0Zm0,44.536a20.992,20.992,0,1,1,21-21A20.928,20.928,0,0,1,23.54,44.536Z" fill="#fff"/>
  <ellipse id="Ellipse_13" data-name="Ellipse 13" cx="2.545" cy="2.545" rx="2.545" ry="2.545" transform="translate(13.308 15.746)" fill="#fff"/>
  <ellipse id="Ellipse_14" data-name="Ellipse 14" cx="2.545" cy="2.545" rx="2.545" ry="2.545" transform="translate(29.054 15.746)" fill="#fff"/>
  <path id="Path_32" data-name="Path 32" d="M82.931,187.278a14.775,14.775,0,0,0,12.344-6.7L93.136,179.2a12.09,12.09,0,0,1-20.322,0l-2.137,1.381a14.778,14.778,0,0,0,10.605,6.6A14.38,14.38,0,0,0,82.931,187.278Z" transform="translate(-59.435 -150.695)" fill="#fff"/>
</svg>
