<svg id="appointment" xmlns="http://www.w3.org/2000/svg" width="58.667" height="58.667" viewBox="0 0 58.667 58.667">
  <g id="Group_55" data-name="Group 55">
    <g id="Group_54" data-name="Group 54">
      <path id="Path_47" data-name="Path 47" d="M52.938,5.042H47.476v-1.6a3.438,3.438,0,0,0-6.875,0v1.6H21.351v-1.6a3.438,3.438,0,1,0-6.875,0V5.084a1.143,1.143,0,0,0-.305-.042H9.6a5.736,5.736,0,0,0-5.729,5.729l-.033,25.8a1.146,1.146,0,0,0,2.292,0l.033-19.725,49.957-.033a1.146,1.146,0,1,0,0-2.292l-49.957.033V10.771A3.441,3.441,0,0,1,9.6,7.333H14.17a1.148,1.148,0,0,0,.305-.042V8.766a3.438,3.438,0,0,0,6.875,0V7.333H40.6V8.766a3.438,3.438,0,0,0,6.875,0V7.333h5.462a3.441,3.441,0,0,1,3.438,3.438V54.312a2.063,2.063,0,0,1-4.126,0V51.348A1.146,1.146,0,0,0,51.1,50.2H37.774a1.146,1.146,0,1,0,0,2.292H49.957v1.818a4.328,4.328,0,0,0,.521,2.063H4.354a2.065,2.065,0,0,1-2.063-2.063V52.494H38.963a1.146,1.146,0,1,0,0-2.292H16.49a9.4,9.4,0,1,0-12.244,0h-3.1A1.146,1.146,0,0,0,0,51.348v2.965a4.359,4.359,0,0,0,4.354,4.354H54.312a4.36,4.36,0,0,0,4.355-4.355V10.771A5.736,5.736,0,0,0,52.938,5.042ZM19.059,8.766a1.146,1.146,0,1,1-2.292,0V3.438a1.146,1.146,0,1,1,2.292,0Zm26.125,0a1.146,1.146,0,1,1-2.292,0V3.438a1.146,1.146,0,1,1,2.292,0ZM3.263,43.083a7.1,7.1,0,1,1,7.1,7.1A7.112,7.112,0,0,1,3.263,43.083Z" fill="#0098b7"/>
    </g>
  </g>
  <g id="Group_57" data-name="Group 57" transform="translate(51.705 14.552)">
    <g id="Group_56" data-name="Group 56">
      <path id="Path_48" data-name="Path 48" d="M453.2,127.336a1.145,1.145,0,1,0,.336.81A1.154,1.154,0,0,0,453.2,127.336Z" transform="translate(-451.24 -127)" fill="#0098b7"/>
    </g>
  </g>
  <g id="Group_59" data-name="Group 59" transform="translate(32.264 50.202)">
    <g id="Group_58" data-name="Group 58">
      <path id="Path_49" data-name="Path 49" d="M283.536,438.465a1.146,1.146,0,1,0,.336.81A1.153,1.153,0,0,0,283.536,438.465Z" transform="translate(-281.58 -438.13)" fill="#0098b7"/>
    </g>
  </g>
  <g id="Group_61" data-name="Group 61" transform="translate(21.57 34.833)">
    <g id="Group_60" data-name="Group 60">
      <path id="Path_50" data-name="Path 50" d="M192.6,304a4.354,4.354,0,1,0,4.354,4.354A4.359,4.359,0,0,0,192.6,304Zm0,6.417a2.063,2.063,0,1,1,2.063-2.062A2.065,2.065,0,0,1,192.6,310.417Z" transform="translate(-188.245 -304)" fill="#0098b7"/>
    </g>
  </g>
  <g id="Group_63" data-name="Group 63" transform="translate(32.264 34.833)">
    <g id="Group_62" data-name="Group 62">
      <path id="Path_51" data-name="Path 51" d="M285.932,304a4.354,4.354,0,1,0,4.354,4.354A4.359,4.359,0,0,0,285.932,304Zm0,6.417a2.063,2.063,0,1,1,2.063-2.062A2.065,2.065,0,0,1,285.932,310.417Z" transform="translate(-281.578 -304)" fill="#0098b7"/>
    </g>
  </g>
  <g id="Group_65" data-name="Group 65" transform="translate(42.959 34.833)">
    <g id="Group_64" data-name="Group 64">
      <path id="Path_52" data-name="Path 52" d="M379.266,304a4.354,4.354,0,1,0,4.354,4.354A4.359,4.359,0,0,0,379.266,304Zm0,6.417a2.063,2.063,0,1,1,2.063-2.062A2.065,2.065,0,0,1,379.266,310.417Z" transform="translate(-374.912 -304)" fill="#0098b7"/>
    </g>
  </g>
  <g id="Group_67" data-name="Group 67" transform="translate(10.875 22.917)">
    <g id="Group_66" data-name="Group 66">
      <path id="Path_53" data-name="Path 53" d="M99.266,200a4.354,4.354,0,1,0,4.354,4.354A4.359,4.359,0,0,0,99.266,200Zm0,6.417a2.063,2.063,0,1,1,2.063-2.062A2.065,2.065,0,0,1,99.266,206.417Z" transform="translate(-94.912 -200)" fill="#0098b7"/>
    </g>
  </g>
  <g id="Group_69" data-name="Group 69" transform="translate(32.264 22.917)">
    <g id="Group_68" data-name="Group 68">
      <path id="Path_54" data-name="Path 54" d="M285.932,200a4.354,4.354,0,1,0,4.354,4.354A4.359,4.359,0,0,0,285.932,200Zm0,6.417a2.063,2.063,0,1,1,2.063-2.062A2.065,2.065,0,0,1,285.932,206.417Z" transform="translate(-281.578 -200)" fill="#0098b7"/>
    </g>
  </g>
  <g id="Group_71" data-name="Group 71" transform="translate(42.959 22.917)">
    <g id="Group_70" data-name="Group 70">
      <path id="Path_55" data-name="Path 55" d="M379.266,200a4.354,4.354,0,1,0,4.354,4.354A4.359,4.359,0,0,0,379.266,200Zm0,6.417a2.063,2.063,0,1,1,2.063-2.062A2.065,2.065,0,0,1,379.266,206.417Z" transform="translate(-374.912 -200)" fill="#0098b7"/>
    </g>
  </g>
  <g id="Group_73" data-name="Group 73" transform="translate(21.57 22.917)">
    <g id="Group_72" data-name="Group 72">
      <path id="Path_56" data-name="Path 56" d="M192.6,200a4.354,4.354,0,1,0,4.354,4.354A4.359,4.359,0,0,0,192.6,200Zm0,6.417a2.063,2.063,0,1,1,2.063-2.062A2.065,2.065,0,0,1,192.6,206.417Z" transform="translate(-188.245 -200)" fill="#0098b7"/>
    </g>
  </g>
  <g id="Group_75" data-name="Group 75" transform="translate(5.866 39.955)">
    <g id="Group_74" data-name="Group 74">
      <path id="Path_57" data-name="Path 57" d="M59.778,349.036a1.146,1.146,0,0,0-1.621,0l-3.732,3.732-1.275-1.275a1.146,1.146,0,1,0-1.621,1.621l2.086,2.085a1.146,1.146,0,0,0,1.62,0l4.542-4.542A1.146,1.146,0,0,0,59.778,349.036Z" transform="translate(-51.194 -348.7)" fill="#0098b7"/>
    </g>
  </g>
</svg>
