<svg id="calendar" xmlns="http://www.w3.org/2000/svg" width="122" height="122" viewBox="0 0 122 122">
  <g id="Group_93" data-name="Group 93">
    <g id="Group_92" data-name="Group 92">
      <path id="Path_61" data-name="Path 61" d="M111.277,14.3H107.7V10.723a10.723,10.723,0,0,0-21.445,0V14.3h-14.3V10.723a10.723,10.723,0,0,0-21.445,0V14.3H35.742V10.723a10.723,10.723,0,1,0-21.445,0V14.3H10.723A10.735,10.735,0,0,0,0,25.02v86.258A10.735,10.735,0,0,0,10.723,122H111.277A10.735,10.735,0,0,0,122,111.277V25.02A10.735,10.735,0,0,0,111.277,14.3ZM93.406,10.723a3.574,3.574,0,1,1,7.148,0v14.3a3.574,3.574,0,1,1-7.148,0Zm-35.742,0a3.574,3.574,0,0,1,7.148,0v14.3a3.574,3.574,0,1,1-7.148,0Zm-36.219,0a3.574,3.574,0,1,1,7.148,0v14.3a3.574,3.574,0,1,1-7.148,0Zm93.406,100.555a3.578,3.578,0,0,1-3.574,3.574H10.723a3.578,3.578,0,0,1-3.574-3.574V50.516h107.7Zm0-67.91H7.148V25.02a3.578,3.578,0,0,1,3.574-3.574H14.3V25.02a10.723,10.723,0,1,0,21.445,0V21.445H50.516V25.02a10.723,10.723,0,1,0,21.445,0V21.445h14.3V25.02a10.723,10.723,0,1,0,21.445,0V21.445h3.574a3.578,3.578,0,0,1,3.574,3.574Z" fill="#0098b7"/>
    </g>
  </g>
  <g id="Group_95" data-name="Group 95" transform="translate(14.297 57.664)">
    <g id="Group_94" data-name="Group 94">
      <path id="Path_62" data-name="Path 62" d="M149.832,242H63.574A3.574,3.574,0,0,0,60,245.574v42.891a3.574,3.574,0,0,0,3.574,3.574h86.258a3.574,3.574,0,0,0,3.574-3.574V245.574A3.574,3.574,0,0,0,149.832,242ZM81.445,284.891h-14.3v-14.3h14.3Zm0-21.445h-14.3v-14.3h14.3Zm21.922,21.445H88.594v-14.3h14.773Zm0-21.445H88.594v-14.3h14.773Zm21.445,21.445h-14.3v-14.3h14.3Zm0-21.445h-14.3v-14.3h14.3Zm21.445,21.445h-14.3v-14.3h14.3Zm0-21.445h-14.3v-14.3h14.3Z" transform="translate(-60 -242)" fill="#0098b7"/>
    </g>
  </g>
</svg>
