<svg id="whatsapp" xmlns="http://www.w3.org/2000/svg" width="17.487" height="17.487" viewBox="0 0 17.487 17.487">
  <path id="Path_81" data-name="Path 81" d="M14.378,12.148l-.007.055c-1.6-.8-1.77-.9-1.977-.595-.144.215-.562.7-.688.847s-.254.153-.471.055a5.914,5.914,0,0,1-1.751-1.082,6.61,6.61,0,0,1-1.21-1.508c-.213-.369.233-.421.64-1.191A.4.4,0,0,0,8.9,8.347c-.055-.109-.49-1.18-.672-1.607s-.355-.372-.49-.372a1.084,1.084,0,0,0-1,.251c-1.176,1.293-.879,2.626.127,4.044,1.978,2.588,3.031,3.065,4.958,3.726a3.015,3.015,0,0,0,1.37.088,2.242,2.242,0,0,0,1.469-1.039,1.8,1.8,0,0,0,.131-1.038C14.739,12.3,14.6,12.247,14.378,12.148Z" transform="translate(-1.622 -1.724)" fill="#0098b7"/>
  <path id="Path_82" data-name="Path 82" d="M14.951,2.513A8.746,8.746,0,0,0,.074,8.665,8.624,8.624,0,0,0,1.236,13L0,17.487l4.616-1.2A8.722,8.722,0,0,0,17.487,8.67a8.594,8.594,0,0,0-2.547-6.128Zm1.08,6.133a7.254,7.254,0,0,1-10.938,6.2l-.262-.156L2.1,15.4l.732-2.656-.174-.273A7.227,7.227,0,0,1,13.912,3.553a7.132,7.132,0,0,1,2.12,5.093Z" transform="translate(0 0)" fill="#0098b7"/>
</svg>
