<svg xmlns="http://www.w3.org/2000/svg" width="19.783" height="19.784" viewBox="0 0 19.783 19.784">
  <g id="Group_113" data-name="Group 113" transform="translate(-105.796 -2.939)">
    <g id="instagram" transform="translate(105.796 2.939)">
      <path id="Path_68" data-name="Path 68" d="M10.922,5.838A5.076,5.076,0,1,0,16,10.914,5.076,5.076,0,0,0,10.922,5.838Zm0,8.371a3.295,3.295,0,1,1,3.295-3.295A3.294,3.294,0,0,1,10.922,14.209Z" transform="translate(-1.027 -1.026)" fill="#0098b7"/>
      <path id="Path_69" data-name="Path 69" d="M13.97.063c-1.82-.085-6.328-.081-8.15,0a5.912,5.912,0,0,0-4.151,1.6C-.233,3.565.01,6.129.01,9.888c0,3.848-.214,6.352,1.659,8.226,1.91,1.909,4.511,1.659,8.226,1.659,3.812,0,5.127,0,6.475-.519,1.832-.711,3.216-2.349,3.351-5.291.086-1.821.081-6.328,0-8.15C19.557,2.34,17.694.234,13.97.063Zm2.881,16.793c-1.247,1.247-2.977,1.136-6.98,1.136-4.122,0-5.774.061-6.98-1.148-1.389-1.382-1.138-3.6-1.138-6.968,0-4.554-.467-7.834,4.1-8.068,1.05-.037,1.359-.049,4-.049l.037.025c4.393,0,7.839-.46,8.046,4.11.047,1.043.058,1.356.058,4C18,13.961,18.077,15.624,16.851,16.855Z" transform="translate(0 -0.001)" fill="#0098b7"/>
      <ellipse id="Ellipse_25" data-name="Ellipse 25" cx="1.186" cy="1.186" rx="1.186" ry="1.186" transform="translate(13.986 3.425)" fill="#0098b7"/>
    </g>
  </g>
</svg>
