<svg id="youtube" xmlns="http://www.w3.org/2000/svg" width="22.9" height="15.744" viewBox="0 0 22.9 15.744">
  <g id="Group_105" data-name="Group 105" transform="translate(0 0)">
    <path id="Path_83" data-name="Path 83" d="M21.927,81.517c-.621-1.1-1.3-1.308-2.668-1.385C17.888,80.039,14.44,80,11.453,80s-6.442.039-7.812.13S1.6,80.411.969,81.517,0,84.521,0,87.868v.011c0,3.332.329,5.247.969,6.339s1.3,1.305,2.671,1.4,4.821.127,7.813.127,6.435-.047,7.808-.126,2.047-.293,2.668-1.4c.646-1.092.972-3.007.972-6.339v-.011C22.9,84.521,22.574,82.621,21.927,81.517ZM8.588,92.166V83.578l7.156,4.294Z" transform="translate(0 -80)" fill="#0098b7"/>
  </g>
</svg>
