<svg id="twitter" xmlns="http://www.w3.org/2000/svg" width="18.87" height="15.332" viewBox="0 0 18.87 15.332">
  <g id="Group_104" data-name="Group 104" transform="translate(0 0)">
    <path id="Path_80" data-name="Path 80" d="M18.87,49.815a8.065,8.065,0,0,1-2.229.611,3.847,3.847,0,0,0,1.7-2.138,7.731,7.731,0,0,1-2.453.936A3.868,3.868,0,0,0,9.2,51.87a3.983,3.983,0,0,0,.09.882,10.95,10.95,0,0,1-7.974-4.046A3.87,3.87,0,0,0,2.5,53.876,3.82,3.82,0,0,1,.755,53.4v.042a3.886,3.886,0,0,0,3.1,3.8,3.861,3.861,0,0,1-1.014.127,3.421,3.421,0,0,1-.732-.066A3.905,3.905,0,0,0,5.722,60a7.773,7.773,0,0,1-4.8,1.65A7.245,7.245,0,0,1,0,61.6a10.891,10.891,0,0,0,5.935,1.736A10.935,10.935,0,0,0,16.945,52.324c0-.171-.006-.336-.014-.5A7.718,7.718,0,0,0,18.87,49.815Z" transform="translate(0 -48)" fill="#0098b7"/>
  </g>
</svg>
