<svg id="map" xmlns="http://www.w3.org/2000/svg" width="48.16" height="47.396" viewBox="0 0 48.16 47.396">
  <path id="Path_34" data-name="Path 34" d="M31.772,10.276,16.388,4.206,0,10.671V51.206L16.388,44.74l15.384,6.07L48.16,44.344V3.81ZM17.391,28.644l1.142,1.076a12.13,12.13,0,0,0,1.814-2.788,11.225,11.225,0,0,1,1.164-1.915l-1.543-1.283A12.821,12.821,0,0,0,18.571,26a13.494,13.494,0,0,1-1.18,1.967V6.759l13.378,5.278v20.27l-1.051.99a4.693,4.693,0,0,0,1.051.848V48.257L17.391,42.979V28.644ZM2.007,12.037,15.385,6.759V29.366a4.894,4.894,0,0,1-1.278.156,1.456,1.456,0,0,1-1.494-.788l-1.763.959a3.44,3.44,0,0,0,3.257,1.837,7.317,7.317,0,0,0,1.278-.108V42.979L2.007,48.257ZM46.154,42.979,32.776,48.257V34.67c.974-.02,1.932-.68,3.01-2.078L34.2,31.366c-.829,1.075-1.283,1.26-1.421,1.292V12.037L46.154,6.759Z" transform="translate(0 -3.81)" fill="#0098b7"/>
  <path id="Path_35" data-name="Path 35" d="M215.656,185.61a4.534,4.534,0,0,0-2.1.481l.919,1.784a2.521,2.521,0,0,1,1.179-.258c.56,0,1.314.174,2.187,1.531l1.688-1.085A4.527,4.527,0,0,0,215.656,185.61Z" transform="translate(-192.131 -167.369)" fill="#0098b7"/>
  <path id="Path_36" data-name="Path 36" d="M63.746,133.84v2.007a2.8,2.8,0,0,1,3.119,2.235l1.923-.572A4.78,4.78,0,0,0,63.746,133.84Z" transform="translate(-57.35 -120.794)" fill="#0098b7"/>
  <path id="Path_37" data-name="Path 37" d="M265.595,226.354c-.287-.69-.583-1.4-.9-2.071l-1.809.869c.3.619.583,1.307.859,1.972a25.916,25.916,0,0,0,1.464,3.131l1.73-1.017A24.093,24.093,0,0,1,265.595,226.354Z" transform="translate(-236.506 -202.162)" fill="#0098b7"/>
  <path id="Path_38" data-name="Path 38" d="M99.7,189.245c-.044-.863-.089-1.756-.2-2.615l-1.989.267c.1.777.147,1.627.189,2.449a22.6,22.6,0,0,0,.3,3.118l1.969-.389A20.911,20.911,0,0,1,99.7,189.245Z" transform="translate(-87.728 -168.287)" fill="#0098b7"/>
  <path id="Path_39" data-name="Path 39" d="M352.558,221.857c.293-.535.569-1.041.812-1.46l-1.737-1.006c-.255.441-.537.956-.836,1.5-.57,1.043-1.217,2.224-1.88,3.258l1.689,1.084C351.307,224.143,351.972,222.928,352.558,221.857Z" transform="translate(-313.909 -197.761)" fill="#0098b7"/>
  <path id="Path_40" data-name="Path 40" d="M359.7,154.447l1.789-1.789,1.789,1.789,1.419-1.419-1.789-1.789,1.789-1.789-1.419-1.419-1.789,1.789-1.789-1.789-1.419,1.419,1.789,1.789-1.789,1.789Z" transform="translate(-322.331 -133.562)" fill="#0098b7"/>
</svg>
