<svg id="mountain" xmlns="http://www.w3.org/2000/svg" width="62.004" height="46.407" viewBox="0 0 62.004 46.407">
  <path id="Path_43" data-name="Path 43" d="M48.293,79.127,44.56,87.21,32.6,61.824,22.19,83.92,16.822,72.526,0,108.231H62Zm.023,5.968L51.1,91.011a7.406,7.406,0,0,0-.76.625,2.4,2.4,0,0,1-3.739,0,6.222,6.222,0,0,0-.96-.754ZM36.8,76.655a6.994,6.994,0,0,0-1.409,1.064,3.611,3.611,0,0,1-5.554,0,6.923,6.923,0,0,0-1.429-1.075l4.193-8.9Zm-15.69,10.89a7.853,7.853,0,0,0-1.338,1.041,3.841,3.841,0,0,1-5.9,0,7.847,7.847,0,0,0-1.338-1.041l4.287-9.1ZM3.977,105.708l7.474-15.863a8.03,8.03,0,0,1,.729.611,6.317,6.317,0,0,0,9.284,0,8.051,8.051,0,0,1,.729-.611l7.473,15.863Zm28.477,0L23.584,86.88l3.746-7.95a5.931,5.931,0,0,1,.812.66,6.087,6.087,0,0,0,8.94,0,6.187,6.187,0,0,1,.793-.648L43.18,90.2l-7.161,15.508H32.455Zm12.115-12.5c.1.078.206.176.341.3a4.875,4.875,0,0,0,7.125,0l.171-.153,5.82,12.354H38.8Z" transform="translate(0 -61.824)" fill="#0098b7"/>
  <path id="Path_44" data-name="Path 44" d="M347.036,126.664l1.009,1.353,1.014-1.35a8.384,8.384,0,0,1,1.283-1.3,4.59,4.59,0,0,1,2.7-1.159v-2.523a7.566,7.566,0,0,0-5,2.349,7.566,7.566,0,0,0-5-2.349v2.523a4.589,4.589,0,0,1,2.7,1.159A8.391,8.391,0,0,1,347.036,126.664Z" transform="translate(-299.777 -114.137)" fill="#0098b7"/>
</svg>
