<svg id="backpack" xmlns="http://www.w3.org/2000/svg" width="42.357" height="49.582" viewBox="0 0 42.357 49.582">
  <path id="Path_45" data-name="Path 45" d="M186.893,88.81H174.058v6.531h12.835V88.81Zm-2.066,4.465h-8.7v-2.4h8.7Z" transform="translate(-159.691 -79.636)" fill="#0098b7"/>
  <path id="Path_46" data-name="Path 46" d="M77.313,39.864c-.453-7.125-1.178-11.366-2.35-13.75a4.9,4.9,0,0,0-4.242-3.059l-.528-10.329a3.986,3.986,0,0,0-1.574-2.95l.139-1.515A3.542,3.542,0,0,0,65.19,4.349H62.172V3.829A3.833,3.833,0,0,0,58.344,0H53.166a3.833,3.833,0,0,0-3.828,3.828v.521h-2.23A3.542,3.542,0,0,0,43.54,8.26l.139,1.515a3.973,3.973,0,0,0-1.575,2.95l-.528,10.329a4.9,4.9,0,0,0-4.242,3.059c-1.172,2.384-1.9,6.625-2.35,13.75a3.7,3.7,0,0,0,.82,2.913c.976,1.04,2.558,1.186,4.7,1.206L40.419,45.7A3.669,3.669,0,0,0,44.1,49.582h24.09A3.669,3.669,0,0,0,71.878,45.7l-.088-1.722c2.144-.02,3.726-.165,4.7-1.206A3.7,3.7,0,0,0,77.313,39.864ZM51.4,3.828a1.765,1.765,0,0,1,1.763-1.763h5.178a1.765,1.765,0,0,1,1.763,1.763v.521H51.4V3.828ZM45.972,6.9a1.512,1.512,0,0,1,1.136-.481H65.19A1.477,1.477,0,0,1,66.7,8.071L65.642,19.584a2.1,2.1,0,0,1-2.023,1.845H48.679a2.1,2.1,0,0,1-2.023-1.845L45.6,8.071h0A1.511,1.511,0,0,1,45.972,6.9Zm3.205,31.156c-.188,0-.4-.237-.4-.576v-3.94c0-.34.209-.576.4-.576h2.387c.188,0,.4.237.4.576v3.94c0,.34-.209.576-.4.576Zm1.644-7.158h-.9V23.5h.9Zm-.9,9.224h.9v7.4h-.9Zm2.965-.415a2.692,2.692,0,0,0,1.14-2.227v-3.94a2.692,2.692,0,0,0-1.14-2.227V23.5h5.738v7.813a2.691,2.691,0,0,0-1.14,2.227v3.94a2.692,2.692,0,0,0,1.14,2.227v7.813H52.886Zm7.06-1.651c-.188,0-.4-.237-.4-.576v-3.94c0-.34.209-.576.4-.576h2.387c.188,0,.4.237.4.576v3.94c0,.34-.209.576-.4.576ZM60.69,23.5h.9v7.4h-.9Zm0,16.622h.9v7.4h-.9ZM37.312,41.363a1.887,1.887,0,0,1-.265-1.368c.805-12.653,2.449-14.574,4.424-14.865l-.858,16.788C39.03,41.9,37.747,41.827,37.312,41.363Zm5.609,5.654a1.614,1.614,0,0,1-.438-1.207l1.611-31.529.505,5.492A4.2,4.2,0,0,0,47.855,23.4v7.9a2.691,2.691,0,0,0-1.141,2.227v3.94A2.692,2.692,0,0,0,47.855,39.7v7.813H44.1A1.614,1.614,0,0,1,42.92,47.017Zm26.457,0a1.614,1.614,0,0,1-1.184.5H63.655V39.7A2.692,2.692,0,0,0,64.8,37.475v-3.94a2.691,2.691,0,0,0-1.141-2.227V23.494A4.181,4.181,0,0,0,67.7,19.773l.505-5.49L69.815,45.81A1.614,1.614,0,0,1,69.377,47.017Zm5.609-5.654c-.436.464-1.719.541-3.3.554l-.858-16.788c1.975.291,3.619,2.212,4.424,14.866A1.886,1.886,0,0,1,74.986,41.363Z" transform="translate(-34.97)" fill="#0098b7"/>
</svg>
